<?xml version="1.0" standalone="no"?><!DOCTYPE svg PUBLIC "-//W3C//DTD SVG 1.1//EN" "http://www.w3.org/Graphics/SVG/1.1/DTD/svg11.dtd"><svg t="1783810742221" class="icon" viewBox="0 0 1024 1024" version="1.1" xmlns="http://www.w3.org/2000/svg" p-id="4663" xmlns:xlink="http://www.w3.org/1999/xlink" width="64" height="64"><path d="M893.64000031 435.45999969l41.85999938 49.40000062H208.20000031c-82.30000031 0-146.20000031-82.39999969-146.20000031-181.40000062 0-100.98 63.40000031-184.66000031 147.37999969-181.35999938l729.14000062-0.02000062-45.56000062 50.16c-27.73999969 30.55999969-45.19999969 79.99999969-45.19999969 131.22 0 50.44000031 16.93999969 97.84000031 45.88000031 132z m-78.04000031-10.59999938l-2.4-5.00000062a275.4 275.4 0 0 1-25.45999969-116.4l0.09999938-7.56c1.00000031-37.36000031 9.25999969-73.93999969 23.52-105.96l3.68000062-7.83999938L208.20000031 182.07999969c-46.2-1.8-86.20000031 51-86.20000031 121.38 0 68.74000031 40.86 121.39999969 86.20000031 121.40000062h607.39999969zM116.88000031 865.46l-41.86000031 49.39999969h727.30000031c82.27999969 0 146.20000031-82.39999969 146.19999938-181.39999969 0-100.98-63.40000031-184.66000031-147.39999938-181.36000031L72.00000031 552.08l45.55999969 50.16c27.73999969 30.55999969 45.19999969 79.99999969 45.19999969 131.22 0 50.44000031-16.93999969 97.84000031-45.87999938 132z m78.03999938-10.60000031l2.4-4.99999969a275.4 275.4 0 0 0 25.44-116.4l-0.09999938-7.56c-0.97999969-37.36000031-9.24-73.93999969-23.52-105.96l-3.66-7.84000031 606.84-0.01999969c46.2-1.8 86.20000031 51 86.19999938 121.38 0 68.74000031-40.86 121.39999969-86.19999938 121.39999969H194.91999969z" fill="#2c2c2c" p-id="4665"></path></svg>