<?xml version="1.0" standalone="no"?><!DOCTYPE svg PUBLIC "-//W3C//DTD SVG 1.1//EN" "http://www.w3.org/Graphics/SVG/1.1/DTD/svg11.dtd"><svg t="1783826829080" class="icon" viewBox="0 0 1024 1024" version="1.1" xmlns="http://www.w3.org/2000/svg" p-id="4700" xmlns:xlink="http://www.w3.org/1999/xlink" width="64" height="64"><path d="M477.8 699.2l-0.3-0.5H200.2c-65.7 0-119.5 44.4-119.5 98.7 0 54.3 53.8 98.7 119.5 98.7H583c-63.1-46.3-101.8-118.7-105.2-196.9zM877.8 324.9H229c-60.9 0-110.8-44.4-110.8-98.7 0-54.3 49.8-98.7 110.8-98.7h648.8s-69.2-3.1-65.8 98.7c3.2 98.7 65.8 98.7 65.8 98.7zM170.4 413.1h1.4-1.4zM170.4 610.5h318.8C522 505.4 620.2 429 736.1 429c18.1 0 36.1 1.9 53.8 5.6l36-21.5H171.7c9.3 0.2 64.1 5.5 61.2 98.7-3 98.7-62.5 98.7-62.5 98.7z" fill="#FFFFFF" p-id="4701"></path><path d="M496 626.5H170.4c-8.8 0.1-16.1-7-16.1-15.9-0.1-8.8 7-16.1 15.9-16.1 2.3-0.1 44.3-3.1 46.8-83.2 1-32.3-5.5-56.5-18.8-70-7-7.2-16.5-11.6-26.5-12.2h-1.3c-8.8 0.2-16.2-6.8-16.4-15.6s6.8-16.2 15.6-16.4h656.3c8.8 0 16 7.2 16 16s-7.2 16-16 16H229.5c14 19.9 20.6 47.8 19.5 83.2-1.1 34.9-8.9 62.5-23.2 82.2H496c8.8 0 16 7.2 16 16s-7.2 16-16 16z" fill="#00365B" p-id="4702"></path><path d="M523 833.6c-26-35.9-35.3-73.8-35.3-73.8H189.5s-45.6 2.5-50 54.3c-3.2 36.2 11.4 51.9 11.4 51.9s22.6 30.7 51.2 30.7h381.6c-18.5-13.8-33.4-25.5-60.7-63.1zM818.3 232.2c-0.6-18.1 1.3-32.6 4.9-44.3H222.8s-45.6 2.5-50 54.3c-3.1 36.2 11.4 52 11.4 52s22.6 30.8 51.2 30.8h648.7c0.1-0.1-62.5-0.1-65.8-92.8z" fill="#5E80D5" p-id="4703"></path><path d="M583.8 912.1H200.2c-74.7 0-135.5-51.5-135.5-114.7s60.8-114.7 135.5-114.7h277.3c8.8 0 16 7.2 16 16s-7.2 16-16 16H200.2c-28.1 0-54.4 9-74.2 25.3-18.9 15.6-29.3 36-29.3 57.4s10.4 41.8 29.3 57.4c19.8 16.3 46.1 25.3 74.2 25.3h383.6c8.8 0 16 7.2 16 16s-7.2 16-16 16zM877.8 340.9H229c-69.9 0-126.8-51.5-126.8-114.7S159.1 111.5 229 111.5h649.5c8.8 0.2 15.8 7.5 15.6 16.4s-7.5 15.8-16.4 15.6h-1.4c-11.2 0.6-21.7 5.4-29.6 13.3-13.4 13.6-19.9 37.4-18.9 68.8 2.7 82.3 49.4 83.2 49.9 83.2 8.8 0 16 7.2 16 16s-7.1 16.1-15.9 16.1zM229 143.5c-25.5 0-49.5 8.9-67.6 24.9-17.5 15.6-27.2 36.1-27.2 57.8s9.7 42.1 27.2 57.8c18 16.1 42 24.9 67.6 24.9h591.2c-18.3-24.4-23.5-56.8-24.3-82.2-1.2-35.3 5.7-63.2 20.3-83.2H229z" fill="#00365B" p-id="4704"></path><path d="M736.1 687.7m-141.8 0a141.8 141.8 0 1 0 283.6 0 141.8 141.8 0 1 0-283.6 0Z" fill="#FFFFFF" p-id="4705"></path><path d="M736.1 845.4c-87.1 0-157.7-70.6-157.7-157.7S649 530 736.1 530c41.8 0 82 16.6 111.5 46.2 61.5 61.5 61.5 161.6 0 223.1-29.5 29.6-69.6 46.2-111.5 46.1z m0-283.5c-69.5 0-125.8 56.3-125.8 125.8s56.3 125.8 125.8 125.8 125.8-56.3 125.8-125.8c0-33.4-13.2-65.3-36.8-88.9-23.6-23.7-55.6-37-89-36.9z" fill="#00365B" p-id="4706"></path><path d="M825.9 797.4l83.8 90.7c0.3 0.3 0.6 0.7 0.9 1 7.3 7.3 19.1 7.2 26.4-0.1 7.2-7.3 7.2-19 0-26.3-0.3-0.3-0.7-0.6-1-0.9L845.4 778" fill="#00365B" p-id="4707"></path><path d="M923.8 910.5c-9.2 0-18-3.6-24.5-10.1-0.6-0.6-1.1-1.2-1.5-1.6l-83.7-90.5c-6-6.5-5.5-16.6 1-22.6 4-3.6 9.5-5 14.8-3.7-2.2-8.6 3-17.3 11.5-19.5 5.3-1.3 10.9 0.1 14.8 3.8l90.5 83.7c0.4 0.4 1 0.9 1.6 1.5 13.5 13.5 13.5 35.5 0 49-6.4 6.4-15.3 10.1-24.5 10z m-1.8-32.7c1.1 1 2.8 0.9 3.8-0.2 0.9-1 0.9-2.5 0-3.5l-0.2-0.2-0.3-0.3-49.1-45.5 45.4 49.1 0.3 0.3 0.1 0.3zM545.7 528H339.4c-8.8 0-16-7.2-16-16s7.2-16 16-16h206.3c8.8 0 16 7.2 16 16s-7.2 16-16 16z" fill="#00365B" p-id="4708"></path></svg>