<?xml version="1.0" standalone="no"?><!DOCTYPE svg PUBLIC "-//W3C//DTD SVG 1.1//EN" "http://www.w3.org/Graphics/SVG/1.1/DTD/svg11.dtd"><svg t="1784044011783" class="icon" viewBox="0 0 1024 1024" version="1.1" xmlns="http://www.w3.org/2000/svg" p-id="4905" xmlns:xlink="http://www.w3.org/1999/xlink" width="256" height="256"><path d="M804.51731997 410.1491809A296.03017901 296.03017901 0 0 0 512 165.35371979c-145.59585638 0-267.77265241 103.8392299-292.51731997 245.01639562a230.78821181 230.78821181 0 0 0-153.10763045 217.39957919c0 127.47922479 103.61829536 231.09752015 231.09752016 231.09752015h136.09567151c18.33756613 0 33.14017975-14.80261362 33.14017975-33.14017975s-14.80261362-33.14017975-33.14017975-33.14017975h-136.09567151c-91.02502705 0-164.81716064-74.01306812-164.81716064-164.81716065 0-75.55960983 51.25681135-141.17716575 124.8280104-159.73566641 13.47700643-3.31401797 23.41906036-15.02354815 24.74466755-28.72148911 11.93046471-118.19997445 110.68820037-207.45752525 229.77191295-207.45752525 119.08371257 0 217.84144825 89.25755079 229.77191295 207.45752525 1.3256072 13.9188755 11.26766112 25.40747114 24.74466755 28.72148911 73.57119905 18.55850066 124.8280104 84.17605657 124.8280104 159.73566641 0 91.02502705-74.01306812 164.81716064-164.81716064 164.81716065h-116.21156366c-18.33756613 0-33.14017975 14.80261362-33.14017975 33.14017975s14.80261362 33.14017975 33.14017975 33.14017975h116.21156366c127.47922479 0 231.09752015-103.61829536 231.09752016-231.09752015 0.22093454-98.53680113-61.86166887-184.92220302-153.10763045-217.6205137z" fill="#2c2c2c" p-id="4906"></path><path d="M626.22315289 592.19923501a32.91924522 32.91924522 0 0 0-46.83812073 0l-27.17494739 27.17494739v-133.00258806c0-18.33756613-14.80261362-33.14017975-33.14017976-33.14017976s-33.14017975 14.80261362-33.14017975 33.14017976v133.00258806l-27.17494739-27.17494739c-13.03513737-13.03513737-34.02391789-13.03513737-46.83812072 0s-13.03513737 34.02391789 0 46.8381207l83.7341875 83.73418752a33.11808629 33.11808629 0 0 0 46.83812072 0l83.73418752-83.73418752c13.03513737-13.03513737 13.03513737-34.02391789 0-46.8381207z" fill="#2c2c2c" p-id="4907"></path></svg>