<?xml version="1.0" standalone="no"?><!DOCTYPE svg PUBLIC "-//W3C//DTD SVG 1.1//EN" "http://www.w3.org/Graphics/SVG/1.1/DTD/svg11.dtd"><svg t="1781349099602" class="icon" viewBox="0 0 1024 1024" version="1.1" xmlns="http://www.w3.org/2000/svg" p-id="4317" xmlns:xlink="http://www.w3.org/1999/xlink" width="64" height="64"><path d="M955.712 538.688a35.2 35.2 0 0 1 5.76 69.952l-5.76 0.448h-106.368V896a35.2 35.2 0 0 1-69.952 5.76l-0.448-5.76V609.088h-106.368a35.2 35.2 0 0 1-5.76-69.952l5.76-0.448h283.136z m-157.76-406.4a38.4 38.4 0 0 1 37.888 32.128l0.512 6.272v185.984a38.4 38.4 0 0 1-76.288 6.208l-0.512-6.208-0.064-147.648h-272v638.016h91.328a38.4 38.4 0 0 1 6.208 76.288l-6.208 0.512H320a38.4 38.4 0 0 1-6.208-76.288L320 847.04h90.752v-638.08l-272.064 0.064v147.648a38.4 38.4 0 0 1-32.128 37.888l-6.208 0.512a38.4 38.4 0 0 1-37.952-32.192l-0.448-6.208V170.688a38.4 38.4 0 0 1 32.128-37.888l6.272-0.512h697.6z" fill="#2c2c2c" p-id="4318"></path></svg>