<?xml version="1.0" standalone="no"?><!DOCTYPE svg PUBLIC "-//W3C//DTD SVG 1.1//EN" "http://www.w3.org/Graphics/SVG/1.1/DTD/svg11.dtd"><svg t="1781383676003" class="icon" viewBox="0 0 1024 1024" version="1.1" xmlns="http://www.w3.org/2000/svg" p-id="4922" xmlns:xlink="http://www.w3.org/1999/xlink" width="64" height="64"><path d="M859.28649102 900.34990068H119.48530098a30.82504922 30.82504922 0 1 0-1e-8 61.65009932H859.28649102a30.82504922 30.82504922 0 0 0 0-61.65009932zM345.53566426 366.0490417l-161.83151015 444.39446426A37.24693506 37.24693506 0 0 0 206.82294102 858.73608388a37.24693506 37.24693506 0 0 0 48.80632851-23.11878691l79.63137862-220.91285566h300.54423339l79.63137774 220.91285566a38.27443623 38.27443623 0 0 0 71.92511543-25.6875416l-38.53131153-118.16269014-190.08780557-154.12524785h-192.65656024l43.66882001-120.73144394zM923.50534414 712.83084893l-236.32538027-190.08780557L530.48596221 88.10984463a42.12756738 42.12756738 0 0 0-38.53131241-25.6875416 34.16442979 34.16442979 0 0 0-38.53131152 25.6875416l-71.92511631 184.95029707-187.51905088-151.04274258a32.10942656 32.10942656 0 0 0-43.66882089 5.13750849 32.10942656 32.10942656 0 0 0 5.13750849 43.66882002l729.52617305 590.81344981a27.99942011 27.99942011 0 0 0 43.66882089-5.13750762 32.10942656 32.10942656 0 0 0-5.13750849-43.66882089z m-477.78826817-387.88187344l46.23757383-120.73144395 82.20013242 226.05036328z" fill="#2c2c2c" p-id="4923"></path></svg>