<?xml version="1.0" standalone="no"?><!DOCTYPE svg PUBLIC "-//W3C//DTD SVG 1.1//EN" "http://www.w3.org/Graphics/SVG/1.1/DTD/svg11.dtd"><svg t="1783991084083" class="icon" viewBox="0 0 1024 1024" version="1.1" xmlns="http://www.w3.org/2000/svg" p-id="4795" xmlns:xlink="http://www.w3.org/1999/xlink" width="64" height="64"><path d="M933.03125 586.25V849.5s0 84.31874973-84.26250027 84.31874973H174.44374973C90.125 933.875 90.125 849.55625027 90.125 849.55625027V175.28749973s0-84.375 84.31874973-84.375h674.325c84.26250027 0 84.26250027 84.375 84.26250027 84.375l0.05625027 228.15v182.81250027z m-60.18749973 46.68749973V211.34375027c0-42.1875-60.18749973-60.24375-60.18750054-60.24375H210.50000027c-42.1875 0-60.18749973 60.24375-60.18750054 60.24375V813.49999973s17.99999973 60.18749973 60.18750054 60.18750054h602.1c42.13124973 0 60.18749973-60.18749973 60.18749973-60.18750054V632.93749973z m-472.21875027 42.8625s-76.04999973 88.03124973 112.27500027 97.48125054v31.725s-272.81249973 52.14375-254.19375027-158.68125027c6.75-75.37499973 200.92499973-247.66874973 200.92499973-247.66874973L295.15625 258.2h422.26875027s46.34999973-9.73124973 46.34999973 43.98749973v380.75625027l-187.76249973-172.125-175.38750027 164.98124973z" fill="#2c2c2c" p-id="4796"></path></svg>