<?xml version="1.0" standalone="no"?><!DOCTYPE svg PUBLIC "-//W3C//DTD SVG 1.1//EN" "http://www.w3.org/Graphics/SVG/1.1/DTD/svg11.dtd"><svg t="1783942792092" class="icon" viewBox="0 0 1024 1024" version="1.1" xmlns="http://www.w3.org/2000/svg" p-id="4765" xmlns:xlink="http://www.w3.org/1999/xlink" width="256" height="256"><path d="M492.50444082 961.40013682c-13.99681143 0-27.99362373-4.19904316-39.94090225-12.69710771l-176.95969277-125.37144317C169.67797315 740.20052128 112.09108994 622.67728994 112.09108994 491.40719053V253.36141191c0-13.34695957 7.69824667-25.49419277 19.79549121-31.242883L453.91323096 69.40331386a32.1926669 32.1926669 0 0 1 3.74914599-1.49965839 109.27510927 109.27510927 0 0 1 69.68412774 0c1.24971504 0.44989717 2.49943096 0.94978388 3.69915732 1.49965839L853.22227695 222.16851758a34.5921205 34.5921205 0 0 1 19.79549122 31.242883v238.04577862c0 131.27009941-57.5868832 248.79333076-162.1630626 330.92462285l-178.30938516 126.37121572c-11.99726719 8.49806455-25.9940795 12.69710771-39.99089091 12.69710772zM181.3253205 275.25642471v216.15076581c0 109.57504131 48.18902344 207.75267862 135.66909728 276.48702247l175.61000039 124.3716706 176.95969189-125.37144317c86.13038145-67.73457128 134.31940489-165.91220859 134.31940576-275.43726122V275.20643604L503.50193545 132.88885332a39.89091357 39.89091357 0 0 0-22.04497881 0L181.27533184 275.25642471z m372.91505802 414.55557334c0 19.09565068-15.49646982 34.5921205-34.54213184 34.59212138h-17.29606025a34.5921205 34.5921205 0 0 1-34.59212051-34.59212138V447.71714229h86.48030127v242.09485576z m-95.07834316-345.42132012a51.88818076 51.88818076 0 1 1 103.7763624 0 51.88818076 51.88818076 0 0 1-103.77636241 0z" fill="#2c2c2c" p-id="4766"></path></svg>