<?xml version="1.0" standalone="no"?><!DOCTYPE svg PUBLIC "-//W3C//DTD SVG 1.1//EN" "http://www.w3.org/Graphics/SVG/1.1/DTD/svg11.dtd"><svg t="1782618041126" class="icon" viewBox="0 0 1024 1024" version="1.1" xmlns="http://www.w3.org/2000/svg" p-id="4502" xmlns:xlink="http://www.w3.org/1999/xlink" width="48" height="48"><path d="M384 502.05866667V906.66666667a32 32 0 0 0 46.336 28.608l192-96A32 32 0 0 0 640 810.66666667V502.05866667l280.768-343.104a32 32 0 0 0-49.536-40.576l-288 352A32 32 0 0 0 576 490.66666667v300.224l-128 64V490.66666667a32 32 0 0 0-7.232-20.288L195.52 170.66666667H704a32 32 0 1 0 0-64H128a32 32 0 0 0-24.768 52.288L384 502.05866667z" fill="#2c2c2c" p-id="4503"></path></svg>