<svg viewBox="0 0 1024 1024" xmlns="http://www.w3.org/2000/svg">
  <defs>
    <mask id="findBookMask">
      <rect width="1024" height="1024" fill="white"/>
      <!-- 封面区域：书形左缘–内封面右缘，顶–底栏上沿；中心 (459,381) -->
      <g transform="translate(459 381) scale(1.72) translate(-12 -20)">
        <path
          fill="black"
          fill-rule="evenodd"
          d="M 0 -108 A 108 108 0 1 1 0 108 A 108 108 0 1 1 0 -108
             M 0 -76 A 76 76 0 1 0 0 76 A 76 76 0 1 0 0 -76"
        />
        <path
          fill="black"
          d="M 70 70 L 132 132 L 116 148 L 54 86 Z"
        />
      </g>
    </mask>
  </defs>
  <path
    d="M831.99999969 221.86666625v586.66666688c0 36.79999969-7.99999969 66.13333312-41.06666625 66.13333312H223.46666656a34.66666688 34.66666688 0 0 1-31.99999969-35.73333281v-90.66666656a34.13333344 34.13333344 0 0 1 31.99999969-35.73333375h519.46666688A36.79999969 36.79999969 0 0 0 778.66666625 672.00000031V151.46666656A74.13333375 74.13333375 0 0 0 708.26666656 73.59999969H209.06666656A74.13333375 74.13333375 0 0 0 138.66666688 151.46666656v721.06666688a74.13333375 74.13333375 0 0 0 70.39999968 77.86666687h619.73333344c53.33333344 0 56.53333312-46.39999969 56.53333313-104.00000062V220.80000031c0-28.8-53.33333344-24.53333344-53.33333344 1.06666594z m-84.79999969 547.73333344H274.66666625c-14.4 0-25.60000031 6.93333375-25.59999937 21.86666719a22.93333313 22.93333313 0 0 0 25.59999937 23.46666656h472.53333375a22.93333313 22.93333313 0 0 0 25.60000031-23.46666656c0-16.00000031-11.73333375-21.86666625-25.60000031-21.86666719z"
    fill="#2c2c2c"
    mask="url(#findBookMask)"
  />
</svg>
