<?xml version="1.0" standalone="no"?><!DOCTYPE svg PUBLIC "-//W3C//DTD SVG 1.1//EN" "http://www.w3.org/Graphics/SVG/1.1/DTD/svg11.dtd"><svg t="1783827343824" class="icon" viewBox="0 0 1024 1024" version="1.1" xmlns="http://www.w3.org/2000/svg" p-id="4700" xmlns:xlink="http://www.w3.org/1999/xlink" width="64" height="64"><path d="M928.32350815 880.16668445c0 21.74824297-20.19479703 38.83614815-46.60337778 38.83614814H165.58155852c-24.85513482 0-46.60337778-17.08790518-46.60337777-38.83614814V341.12094815c0-21.74824297 20.19479703-38.83614815 46.60337777-38.83614815h716.13857185c24.85513482 0 46.60337778 17.08790518 46.60337778 38.83614815v539.0457363z" fill="#E1E0A6" p-id="4701"></path><path d="M881.72013037 934.53729185H165.58155852c-34.17581037 0-62.13783703-24.85513482-62.13783704-54.3706074V341.12094815c0-29.51547259 27.96202667-54.37060741 62.13783704-54.3706074h716.13857185c34.17581037 0 62.13783703 24.85513482 62.13783704 54.3706074v539.0457363c0 29.51547259-27.96202667 54.37060741-62.13783704 54.3706074zM165.58155852 317.81925925c-17.08790518 0-31.06891852 10.87412148-31.06891852 23.3016889v539.0457363c0 12.42756741 13.98101333 23.30168889 31.06891852 23.30168888h716.13857185c17.08790518 0 31.06891852-10.87412148 31.06891852-23.30168888V341.12094815c0-12.42756741-13.98101333-23.30168889-31.06891852-23.3016889H165.58155852z" fill="#231C1C" p-id="4702"></path><path d="M1004.44235852 435.88114963c0 26.40858075-17.08790518 48.1568237-38.83614815 48.1568237L522.87412148 289.85723259 80.14203259 484.03797333c-21.74824297 0-38.83614815-21.74824297-38.83614814-48.1568237v-68.35162074c0-26.40858075 17.08790518-48.1568237 38.83614814-48.15682371l442.73208889-223.69621333 442.73208889 223.69621333c21.74824297 0 38.83614815 21.74824297 38.83614815 48.15682371v68.35162074z" fill="#6FB0BE" p-id="4703"></path><path d="M965.60621037 499.57243259c-1.55344592 0-4.66033778 0-6.2137837-1.55344592L522.87412148 306.94513778 86.3558163 498.01898667c-1.55344592 1.55344592-4.66033778 1.55344592-6.21378371 1.55344592-29.51547259 0-54.37060741-27.96202667-54.37060741-63.69128296v-68.35162074c0-34.17581037 21.74824297-62.13783703 49.71026964-63.69128297l439.62519703-222.1427674c4.66033778-1.55344592 9.32067555-1.55344592 13.98101333 0l439.62519704 222.1427674c27.96202667 3.10689185 49.71026963 29.51547259 49.71026963 63.69128297v68.35162074c1.55344592 34.17581037-21.74824297 63.69128297-52.81716148 63.69128296zM522.87412148 112.76439703l-434.96485926 220.58932149c-1.55344592 1.55344592-4.66033778 1.55344592-6.2137837 1.55344593-12.42756741 0-23.30168889 15.53445925-23.30168889 32.62236444v68.35162074c0 17.08790518 9.32067555 31.06891852 20.19479704 32.62236445l439.62519703-192.62729483c4.66033778-1.55344592 7.76722963-1.55344592 12.42756741 0l439.62519704 192.62729483c10.87412148-1.55344592 20.19479703-15.53445925 20.19479703-32.62236445v-68.35162074c0-18.64135111-10.87412148-32.62236445-23.30168888-32.62236444-3.10689185 0-4.66033778 0-7.76722963-1.55344593L522.87412148 112.76439703z" fill="#231C1C" p-id="4704"></path><path d="M647.14979555 920.55627852H431.22081185V661.13080889c0-21.74824297 18.64135111-37.28270222 40.38959407-37.28270222h135.14979556c21.74824297 0 40.38959408 15.53445925 40.38959407 37.28270222v259.42546963z" fill="#FDE8C2" p-id="4705"></path><path d="M647.14979555 936.09073778H431.22081185c-9.32067555 0-15.53445925-6.2137837-15.53445926-15.53445926V661.13080889c0-29.51547259 23.30168889-52.81716148 55.92405333-52.81716148h135.14979556c31.06891852 0 55.92405333 21.74824297 55.92405334 52.81716148v257.8720237c0 9.32067555-6.2137837 17.08790518-15.53445927 17.08790519z m-200.39452444-31.06891853h184.86006519V661.13080889c0-13.98101333-12.42756741-21.74824297-24.85513482-21.74824297h-135.14979556c-12.42756741 0-24.85513482 6.2137837-24.85513481 21.74824297v243.89101036z" fill="#231C1C" p-id="4706"></path></svg>