<svg xmlns="http://www.w3.org/2000/svg" viewBox="0 0 1024 1024" width="64" height="64">
  <path fill="#000" d="M885.19 141.08c-93.3-93.3-245.76-95.57-341.33-2.28l-72.82 72.82c-13.65 13.65-13.65 34.13 0 47.79s34.13 13.65 47.79 0l72.82-72.82c68.27-66 177.49-66 245.76 2.28 68.27 68.27 68.27 179.77 2.28 248.04l-125.16 127.43c-36.41 36.41-86.47 54.61-136.53 52.34-50.06-4.55-97.85-29.58-127.43-70.54-11.38-15.93-31.86-18.2-47.79-6.83-15.93 11.38-18.2 31.86-6.83 47.79 43.24 56.89 106.95 93.3 177.49 97.85h18.2c63.72 0 127.43-25.03 172.94-72.82l125.16-127.43c88.75-95.57 88.75-250.31-4.55-343.61z"/>
  <path fill="#000" d="M505.17 766.86l-70.54 72.82c-68.27 66-177.49 66-245.76-2.28-68.27-68.27-68.27-179.77-2.28-248.04l125.16-127.43c36.41-36.41 86.47-54.61 136.53-52.34 50.06 4.55 97.85 29.58 127.43 70.54 11.38 15.93 31.86 18.2 47.79 6.83 15.93-11.38 18.2-31.86 6.83-47.79-43.24-56.89-106.95-93.3-177.49-97.85-70.54-4.55-138.81 20.48-188.87 70.54l-125.16 127.43c-91.02 95.57-91.02 250.31 2.28 343.61 47.79 47.79 109.23 70.54 172.94 70.54 61.44 0 122.88-22.76 170.67-68.27l70.54-72.82c13.65-13.65 13.65-34.13 0-47.79-15.93-11.38-36.41-11.38-50.06 2.28z"/>
</svg>
