<?xml version="1.0" standalone="no"?><!DOCTYPE svg PUBLIC "-//W3C//DTD SVG 1.1//EN" "http://www.w3.org/Graphics/SVG/1.1/DTD/svg11.dtd"><svg t="1783740914731" class="icon" viewBox="0 0 1024 1024" version="1.1" xmlns="http://www.w3.org/2000/svg" p-id="4632" xmlns:xlink="http://www.w3.org/1999/xlink" width="64" height="64"><path d="M832 362.66666666h-128V266.66666666a192 192 0 1 0-384 0v96H192a64 64 0 0 0-64 64v448a64 64 0 0 0 64 64h640a64 64 0 0 0 64-64V426.66666666a64 64 0 0 0-64-64zM384 266.66666666a128 128 0 1 1 256 0v96h-256V266.66666666z m448 608H192V426.66666666h640v448z m-272-224a48 48 0 1 1-96 0 48 48 0 0 1 96 0z" fill="#2c2c2c" p-id="4633"></path></svg>