<?xml version="1.0" standalone="no"?><!DOCTYPE svg PUBLIC "-//W3C//DTD SVG 1.1//EN" "http://www.w3.org/Graphics/SVG/1.1/DTD/svg11.dtd"><svg t="1784114979481" class="icon" viewBox="0 0 1024 1024" version="1.1" xmlns="http://www.w3.org/2000/svg" p-id="4936" xmlns:xlink="http://www.w3.org/1999/xlink" width="64" height="64"><path d="M223.45950118 43.61949361L42.51411973 516.86126047h82.85044939l43.08223367-118.64184351h198.17827493L409.7073114 516.86126047h82.85044938L311.61237933 43.61949361h-88.15287815zM191.64492863 334.59027183l74.89680624-207.45752525h2.65121438l74.23400263 207.45752525H191.64492863zM613.629885 485.48855785V958.73032471h217.39957919c50.37307323 0 90.14128893-9.27925033 117.97903993-27.83775099C981.48588027 908.3572515 998.05597014 873.22866096 998.05597014 825.50680211c0-31.81457257-7.95364315-57.66391277-23.19812582-76.22241344-15.90728628-19.22130427-39.10541211-31.81457257-70.25718109-37.7798049 23.86092942-9.27925033 41.75662649-21.87251863 54.34989481-39.10541212 12.5932683-18.55850066 19.22130427-41.0938229 19.22130425-67.60596669 0-35.79139413-12.5932683-64.29194871-37.11700132-85.50166378-26.51214381-22.53532223-63.62914512-33.80298335-110.68820037-33.80298333H613.629885z m77.54802063 63.62914512h119.9674507c31.81457257 0 54.34989479 5.30242877 68.93157389 15.90728628 13.2560719 9.94205392 20.54691145 26.51214381 20.54691144 49.04746604 0 24.52373301-7.29083955 42.41943008-20.54691144 53.6870912-13.9188755 10.60485751-37.11700133 16.57008987-70.25718107 16.57008986h-118.64184352v-135.21193338z m0 198.84107852h130.57230823c34.46578693 0 59.65232355 5.96523235 75.55960983 17.89569707 15.24448269 11.93046471 23.19812583 31.15176897 23.19812584 58.32671635 0 26.51214381-10.60485751 45.07064446-31.81457257 57.00110918-16.57008987 9.27925033-39.7682157 13.9188755-68.93157389 13.91887549h-128.58389744v-147.14239809zM494.71187247 860.27637316a41.42522469 41.42522469 0 0 1-29.32905908 50.73209271 276.03008096 276.03008096 0 0 1-266.80606341-71.52755549 276.03008096 276.03008096 0 0 1-71.72087276-266.00517529 41.42522469 41.42522469 0 0 1 80.08876815 21.15448097 193.17963158 193.17963158 0 0 0 50.20737233 186.2754266 193.20724797 193.20724797 0 0 0 186.85537974 50.06928911 41.42522469 41.42522469 0 0 1 50.70447503 29.30144139z" fill="#2c2c2c" p-id="4937"></path><path d="M594.85044939 862.07146667L346.29910124 986.34714075v-248.55134815z" fill="#2c2c2c" p-id="4938"></path></svg>